<?xml version="1.0" encoding="UTF-8" standalone="no"?>
<svg
   xmlns:dc="http://purl.org/dc/elements/1.1/"
   xmlns:cc="http://creativecommons.org/ns#"
   xmlns:rdf="http://www.w3.org/1999/02/22-rdf-syntax-ns#"
   xmlns:svg="http://www.w3.org/2000/svg"
   xmlns="http://www.w3.org/2000/svg"
   xmlns:sodipodi="http://sodipodi.sourceforge.net/DTD/sodipodi-0.dtd"
   xmlns:inkscape="http://www.inkscape.org/namespaces/inkscape"
   sodipodi:docname="logo.svg"
   inkscape:version="1.0 (4035a4fb49, 2020-05-01)"
   id="svg8"
   version="1.1"
   viewBox="0 0 16.933333 16.933334"
   height="64"
   width="64">
  <defs
     id="defs2">
    <inkscape:path-effect
       only_selected="false"
       apply_with_weight="true"
       apply_no_weight="true"
       helper_size="0"
       steps="2"
       weight="33.333333"
       lpeversion="1"
       is_visible="true"
       id="path-effect869"
       effect="bspline" />
  </defs>
  <sodipodi:namedview
     inkscape:window-maximized="0"
     inkscape:window-y="47"
     inkscape:window-x="187"
     inkscape:window-height="911"
     inkscape:window-width="1533"
     units="px"
     showgrid="false"
     inkscape:document-rotation="0"
     inkscape:current-layer="layer1"
     inkscape:document-units="px"
     inkscape:cy="63.511987"
     inkscape:cx="37.463361"
     inkscape:zoom="3.959798"
     inkscape:pageshadow="2"
     inkscape:pageopacity="0.0"
     borderopacity="1.0"
     bordercolor="#666666"
     pagecolor="#ffffff"
     id="base" />
  <metadata
     id="metadata5">
    <rdf:RDF>
      <cc:Work
         rdf:about="">
        <dc:format>image/svg+xml</dc:format>
        <dc:type
           rdf:resource="http://purl.org/dc/dcmitype/StillImage" />
        <dc:title></dc:title>
      </cc:Work>
    </rdf:RDF>
  </metadata>
  <g
     id="layer1"
     inkscape:groupmode="layer"
     inkscape:label="Layer 1">
    <path
       d="M 8.4686896,1.676964 C 8.3401533,1.6771659 8.216971,1.709088 8.103232,1.771991 7.9881501,1.835152 7.8883797,1.9345196 7.8416221,2.067031 c -0.046756,0.132511 -0.040534,0.2982036 -0.02703,0.4816808 0.013515,0.1834767 0.034313,0.3847683 0.020343,0.4960482 -0.013981,0.11128 -0.062739,0.1325801 -0.072124,0.1963143 -0.00939,0.063734 0.020647,0.1697055 0.093463,0.2894916 0.07282,0.1197869 0.1884075,0.2534379 0.2560614,0.3738505 0.067651,0.1204131 0.088049,0.2310115 0.062024,0.2843708 -0.026017,0.05336 -0.09715,0.056369 -0.1547747,0.08194 -0.057626,0.025571 -0.1016357,0.073707 -0.1418297,0.1439635 -0.040193,0.070257 -0.076609,0.1625715 -0.1239052,0.241125 -0.047297,0.078553 -0.1054832,0.1434546 -0.1148017,0.236999 -0.0093,0.093544 0.031517,0.2197227 -0.01209,0.3216422 C 7.58334,5.3163762 7.4578004,5.4021855 7.2913748,5.4959825 7.1249502,5.5897795 6.9175837,5.6915745 6.739135,5.8022604 6.5606883,5.9129475 6.4112524,6.032376 6.3418129,6.1866375 6.2723696,6.3409001 6.2829849,6.5299107 6.3197628,6.7149784 6.3565418,6.9000471 6.4201494,7.0831861 6.3917444,7.2263907 6.3633433,7.3695952 6.2442816,7.4768 6.1991291,7.5732122 6.1539832,7.6696239 6.1827528,7.7551867 6.1456433,7.8164706 6.1085337,7.8777539 6.0068905,7.9144809 5.9269944,8.0120739 5.8470988,8.1096654 5.7915158,8.2670884 5.7486051,8.4249021 5.7056972,8.5827147 5.6753734,8.7408059 5.5498723,8.8583572 5.4243712,8.9759086 5.2036078,9.0530886 5.0280755,9.1609367 4.8525426,9.2687831 4.7222977,9.4072633 4.6680244,9.5649453 c -0.054273,0.157682 -0.032579,0.3344443 0.059748,0.4859477 0.092327,0.151508 0.2553032,0.277855 0.4010217,0.423641 0.1457168,0.145784 0.2736504,0.310125 0.4014476,0.480258 0.1277971,0.170131 0.2529606,0.342743 0.3294665,0.502307 0.076506,0.159564 0.1038298,0.305297 0.051069,0.445548 -0.05276,0.140252 -0.1855581,0.275176 -0.2432589,0.4703 -0.057701,0.195121 -0.040345,0.450309 0.00768,0.804318 0.048023,0.354011 0.1266987,0.806781 0.2276109,1.159106 0.1009133,0.352328 0.2239687,0.604264 0.3146715,0.689234 0.0907,0.08497 0.1490712,0.003 0.1978783,-0.170567 0.048804,-0.173573 0.088141,-0.438808 0.1917628,-0.649117 0.1036185,-0.210308 0.2777093,-0.37134 0.3704349,-0.514684 0.09273,-0.143341 0.1071176,-0.27194 0.07312,-0.402158 -0.033999,-0.13022 -0.1163971,-0.262173 -0.1271778,-0.357633 -0.010762,-0.09546 0.052305,-0.156383 0.1146587,-0.199585 0.062357,-0.04321 0.1289476,-0.07126 0.1496543,-0.117647 0.020706,-0.04638 -0.00244,-0.111979 0.018636,-0.147235 0.021172,-0.03526 0.086639,-0.04011 0.1227678,-0.07028 0.036118,-0.03017 0.043282,-0.08907 0.035278,-0.144817 -0.00801,-0.05574 -0.030937,-0.110073 -0.019774,-0.161461 0.011152,-0.05139 0.056472,-0.0998 0.1543488,-0.144674 0.097872,-0.04488 0.2481838,-0.08614 0.366451,-0.149085 0.1182699,-0.06295 0.2044938,-0.147538 0.2281793,-0.254924 0.023676,-0.107385 -0.015119,-0.237656 -0.094316,-0.347674 C 7.9201639,11.08405 7.7989499,10.99315 7.6997907,10.881103 7.6006337,10.769055 7.5215846,10.633249 7.4304988,10.49886 7.3394134,10.364471 7.235769,10.230514 7.1957759,10.132834 7.1557889,10.035151 7.1795622,9.9738286 7.2293469,9.8884363 7.2791261,9.8030437 7.3548241,9.6935688 7.3748756,9.5592548 7.3949152,9.4249386 7.3592905,9.2657392 7.3067345,9.0869636 7.2541698,8.908188 7.1846295,8.7097889 7.1594998,8.5048502 7.1343663,8.2999115 7.1536364,8.0884227 7.1994706,7.8969877 7.2453211,7.7055521 7.3177541,7.5343361 7.415416,7.4081945 7.5130757,7.2820512 7.6382359,7.1995133 7.7337859,7.164793 c 0.095551,-0.03472 0.1676623,-0.021552 0.2078369,0.043959 0.040177,0.065511 0.051345,0.1880546 0.00583,0.3189395 -0.045519,0.1308836 -0.1493418,0.274766 -0.2038535,0.4371545 -0.054506,0.1623884 -0.06055,0.3444046 -0.015932,0.5208008 0.044626,0.1763945 0.1399125,0.3471651 0.254213,0.5481143 0.1143053,0.2009525 0.245201,0.4279781 0.3321684,0.5708754 0.086971,0.1428967 0.1288111,0.1994482 0.1705664,0.2560619 C 8.5263471,9.8041145 8.5681127,9.7474639 8.6550378,9.6046365 8.7420079,9.4617392 8.8730461,9.2347136 8.9873482,9.0337611 9.1016525,8.8328119 9.1967902,8.6621827 9.2414187,8.4857887 9.2860444,8.3093926 9.2799968,8.1272344 9.2254813,7.964846 9.1709728,7.8024575 9.0671436,7.6585751 9.0216285,7.5276918 c -0.04552,-0.1308849 -0.03421,-0.2534283 0.00598,-0.3189395 0.040177,-0.065511 0.1121416,-0.078677 0.2076943,-0.043959 0.095551,0.03472 0.2207109,0.1172582 0.31837,0.2434015 0.09766,0.1261416 0.1702423,0.2974996 0.2160879,0.4889352 0.04585,0.1914356 0.064966,0.4029237 0.03983,0.6078619 -0.025133,0.2049393 -0.094525,0.4031953 -0.1470932,0.581972 -0.05257,0.1787756 -0.088192,0.338118 -0.068141,0.4724337 0.02004,0.1343141 0.095752,0.2437878 0.1455282,0.3291815 0.049779,0.085393 0.073566,0.1465719 0.033571,0.2442549 -0.039993,0.09768 -0.1436353,0.23178 -0.2347223,0.366169 -0.091086,0.134388 -0.1701344,0.270052 -0.2692919,0.3821 -0.099159,0.112046 -0.2203792,0.202947 -0.299592,0.312965 -0.079215,0.110019 -0.1180011,0.240289 -0.094316,0.347674 0.023676,0.107386 0.1099094,0.191975 0.2281793,0.254924 0.1182667,0.06295 0.2685788,0.10421 0.3664526,0.149085 0.097877,0.04487 0.1431937,0.09329 0.1543488,0.144675 0.011147,0.05139 -0.011765,0.105716 -0.019774,0.161461 -0.00801,0.05575 -8.67e-4,0.114651 0.035278,0.144817 0.036123,0.03017 0.1016053,0.03516 0.1227672,0.07042 0.021172,0.03526 -0.00217,0.100711 0.018636,0.147094 0.020706,0.04638 0.087297,0.07458 0.1496537,0.117788 0.062354,0.04321 0.1252939,0.104126 0.1145159,0.199587 -0.01079,0.09546 -0.093179,0.227412 -0.1271764,0.357631 -0.033999,0.130219 -0.019622,0.258676 0.07312,0.402017 0.092729,0.143344 0.2669564,0.304519 0.3705784,0.514827 0.103622,0.210308 0.142953,0.475401 0.191761,0.648974 0.0488,0.173571 0.107036,0.255535 0.197736,0.170567 0.0907,-0.08497 0.213902,-0.336908 0.314814,-0.689234 0.100912,-0.352325 0.179588,-0.804953 0.22761,-1.158963 0.04803,-0.35401 0.06539,-0.60934 0.0077,-0.804462 -0.0577,-0.195124 -0.190504,-0.329906 -0.243263,-0.470158 -0.05276,-0.14025 -0.02543,-0.285984 0.05107,-0.445547 0.07651,-0.159563 0.201669,-0.332177 0.329467,-0.502308 0.127794,-0.170133 0.255732,-0.334616 0.401448,-0.4804 0.145718,-0.145786 0.308551,-0.272133 0.400878,-0.423641 0.09233,-0.1515044 0.114165,-0.3281237 0.05989,-0.4858057 C 12.246932,9.4074053 12.116544,9.2687825 11.94101,9.1609367 11.765478,9.0530881 11.544854,8.9760505 11.419355,8.8584992 11.293854,8.7409484 11.263534,8.5828578 11.220623,8.425044 c -0.04291,-0.1578137 -0.09849,-0.3153786 -0.17839,-0.4129701 -0.07989,-0.097593 -0.181537,-0.13432 -0.218648,-0.1956033 -0.03711,-0.061284 -0.0083,-0.1467047 -0.05349,-0.2431164 -0.04515,-0.096411 -0.164211,-0.2036165 -0.192616,-0.3468215 -0.0284,-0.1432035 0.03521,-0.3264856 0.07198,-0.5115543 C 10.68624,6.5299107 10.696845,6.3410421 10.62741,6.1867806 10.557969,6.0325185 10.408394,5.9129475 10.229945,5.8022604 10.051496,5.6915745 9.8441271,5.5897795 9.6777053,5.4959825 9.5112964,5.4021855 9.3858967,5.3163762 9.3422799,5.214457 9.2986643,5.1125375 9.3394929,4.986359 9.3301868,4.8928148 9.3208525,4.7992704 9.262683,4.7345104 9.2153862,4.6559581 9.1680899,4.5774045 9.1316724,4.4850894 9.091481,4.4148328 9.0512864,4.3445761 9.0072762,4.2962997 8.9496507,4.2707273 8.8920269,4.2451565 8.8208982,4.2422895 8.7948755,4.1889296 8.7688641,4.1355705 8.7892397,4.02483 8.8569001,3.9044167 8.924553,3.7840041 9.0401405,3.6504946 9.1129615,3.5307087 9.1857825,3.4109223 9.2158083,3.3048083 9.2064247,3.2410746 9.1970389,3.1773404 9.148131,3.1560401 9.1341575,3.0447603 9.1201764,2.9334804 9.1411264,2.7321888 9.1546415,2.5487121 9.1681674,2.3652349 9.174253,2.1995423 9.1274813,2.0670313 9.0807258,1.9345199 8.9810941,1.8352939 8.8660122,1.7721336 8.7311167,1.7082768 8.5972253,1.676762 8.4686896,1.676964 Z m 0.015932,6.2745083 c 0.1493361,0 0.2704299,0.1209513 0.2704299,0.2702869 0,0.1493367 -0.1271918,0.3822187 -0.2704299,0.670028 C 8.338752,8.608111 8.2141922,8.3710959 8.2141922,8.2217592 c 0,-0.1493356 0.1210937,-0.2702874 0.2704294,-0.2702869 z"
       style="fill:#333333;fill-opacity:1;stroke:none;stroke-width:0.0746364;stroke-linecap:butt;stroke-linejoin:miter;stroke-miterlimit:4;stroke-dasharray:none;stroke-opacity:1"
       id="path867" />
  </g>
</svg>
