<?xml version="1.0" encoding="UTF-8" standalone="no"?>
<svg
   xmlns:dc="http://purl.org/dc/elements/1.1/"
   xmlns:cc="http://creativecommons.org/ns#"
   xmlns:rdf="http://www.w3.org/1999/02/22-rdf-syntax-ns#"
   xmlns:svg="http://www.w3.org/2000/svg"
   xmlns="http://www.w3.org/2000/svg"
   xmlns:sodipodi="http://sodipodi.sourceforge.net/DTD/sodipodi-0.dtd"
   xmlns:inkscape="http://www.inkscape.org/namespaces/inkscape"
   sodipodi:docname="logo.svg"
   inkscape:version="1.0 (4035a4fb49, 2020-05-01)"
   id="svg8"
   version="1.1"
   viewBox="0 0 67.733332 67.733335"
   height="256"
   width="256">
  <defs
     id="defs2">
    <inkscape:path-effect
       only_selected="false"
       apply_with_weight="true"
       apply_no_weight="true"
       helper_size="0"
       steps="2"
       weight="33.333333"
       lpeversion="1"
       is_visible="true"
       id="path-effect869"
       effect="bspline" />
  </defs>
  <sodipodi:namedview
     inkscape:window-maximized="0"
     inkscape:window-y="47"
     inkscape:window-x="187"
     inkscape:window-height="911"
     inkscape:window-width="1533"
     units="px"
     showgrid="false"
     inkscape:document-rotation="0"
     inkscape:current-layer="layer1"
     inkscape:document-units="px"
     inkscape:cy="168.27208"
     inkscape:cx="50.720457"
     inkscape:zoom="0.98994949"
     inkscape:pageshadow="2"
     inkscape:pageopacity="0.0"
     borderopacity="1.0"
     bordercolor="#666666"
     pagecolor="#ffffff"
     id="base" />
  <metadata
     id="metadata5">
    <rdf:RDF>
      <cc:Work
         rdf:about="">
        <dc:format>image/svg+xml</dc:format>
        <dc:type
           rdf:resource="http://purl.org/dc/dcmitype/StillImage" />
        <dc:title></dc:title>
      </cc:Work>
    </rdf:RDF>
  </metadata>
  <g
     id="layer1"
     inkscape:groupmode="layer"
     inkscape:label="Layer 1">
    <path
       d="m 33.794342,3.4515955 c -0.584264,9.181e-4 -1.144192,0.1460214 -1.661193,0.4319485 -0.523107,0.2870978 -0.976617,0.738777 -1.189154,1.3411101 -0.212518,0.6023316 -0.184247,1.3554906 -0.122853,2.1894896 0.06144,0.833997 0.155973,1.748972 0.09247,2.254797 -0.06356,0.5058253 -0.285184,0.6026453 -0.327843,0.8923503 -0.04266,0.289703 0.09385,0.7714 0.424839,1.31589 0.331004,0.544494 0.856409,1.152007 1.163932,1.699345 0.307508,0.54734 0.400229,1.050067 0.281929,1.292613 -0.118249,0.242547 -0.441597,0.256226 -0.703532,0.372459 -0.261937,0.116232 -0.461986,0.335036 -0.644688,0.654389 -0.182692,0.319354 -0.348227,0.738972 -0.563215,1.096038 -0.21499,0.357062 -0.479474,0.652076 -0.521833,1.077284 -0.0423,0.425207 0.143271,0.998754 -0.05495,1.462031 -0.198255,0.463276 -0.768909,0.853323 -1.525398,1.27968 -0.756488,0.426355 -1.699075,0.889067 -2.510217,1.392193 -0.811135,0.50313 -1.490398,1.045994 -1.806037,1.747194 -0.315656,0.701203 -0.267402,1.560353 -0.10023,2.401583 0.167174,0.841232 0.456307,1.673696 0.327194,2.324635 -0.129109,0.650939 -0.670296,1.13824 -0.875537,1.576484 -0.205226,0.43824 -0.07445,0.827169 -0.24313,1.105735 -0.16869,0.278565 -0.630704,0.445507 -0.993873,0.889119 -0.363165,0.443605 -0.615821,1.159173 -0.810871,1.876518 -0.195051,0.717341 -0.332877,1.435947 -0.903343,1.97028 -0.570468,0.534331 -1.573952,0.885154 -2.371838,1.37538 -0.797889,0.490218 -1.389919,1.119683 -1.636619,1.836429 -0.246702,0.716747 -0.148094,1.520222 0.271583,2.208886 0.419676,0.688681 1.160485,1.262991 1.822851,1.925665 0.66236,0.662665 1.243885,1.40968 1.824789,2.183022 0.580904,0.773334 1.149837,1.557947 1.497596,2.283248 0.347759,0.725301 0.471962,1.387735 0.232139,2.025247 -0.239814,0.637519 -0.843459,1.250817 -1.105739,2.137756 -0.26228,0.886929 -0.183384,2.04689 0.03491,3.656046 0.218294,1.609163 0.575911,3.667237 1.034609,5.268738 0.458702,1.601514 1.018053,2.746695 1.430346,3.132925 0.412277,0.386228 0.677605,0.01367 0.89946,-0.775311 0.221844,-0.78898 0.400644,-1.994613 0.87166,-2.950574 0.471,-0.95596 1.262333,-1.687936 1.68382,-2.339505 0.421506,-0.65156 0.486906,-1.236112 0.33237,-1.828021 -0.154536,-0.591917 -0.529087,-1.19171 -0.578089,-1.625629 -0.04891,-0.433919 0.237751,-0.71084 0.521183,-0.907219 0.283447,-0.196399 0.586133,-0.32393 0.680256,-0.534765 0.09411,-0.210831 -0.01119,-0.508999 0.08471,-0.669261 0.09623,-0.160264 0.393819,-0.182316 0.558043,-0.319437 0.164182,-0.13712 0.196738,-0.404875 0.160362,-0.658268 -0.03642,-0.253389 -0.140633,-0.50034 -0.08989,-0.733924 0.05068,-0.233582 0.256693,-0.453644 0.701595,-0.657621 0.444886,-0.20398 1.128131,-0.391539 1.665718,-0.677671 0.537597,-0.286134 0.92953,-0.670637 1.037192,-1.158761 0.107613,-0.48812 -0.06871,-1.080268 -0.428714,-1.58036 -0.360091,-0.500087 -0.911071,-0.913278 -1.361803,-1.422587 -0.45072,-0.509316 -0.810039,-1.126625 -1.22407,-1.737495 -0.414032,-0.610863 -0.885149,-1.219768 -1.066938,-1.663779 -0.181766,-0.444016 -0.07371,-0.722757 0.152602,-1.11091 0.226263,-0.388154 0.570359,-0.885774 0.661504,-1.4963 0.09108,-0.610538 -0.07084,-1.334182 -0.309738,-2.14681 -0.238946,-0.812628 -0.555029,-1.714454 -0.669258,-2.646009 -0.114243,-0.931552 -0.02665,-1.892877 0.181702,-2.763049 0.208418,-0.870174 0.537658,-1.64844 0.981583,-2.221821 0.443914,-0.573386 1.012833,-0.948562 1.447157,-1.106384 0.434329,-0.15782 0.762112,-0.09797 0.944727,0.19981 0.182628,0.297782 0.233383,0.854805 0.02651,1.449745 -0.206906,0.594932 -0.67884,1.248952 -0.926624,1.987092 -0.247757,0.738142 -0.275233,1.565499 -0.07243,2.367312 0.20285,0.801803 0.635975,1.578044 1.155529,2.491464 0.519577,0.913433 1.114567,1.945384 1.509879,2.594926 0.395327,0.64954 0.585514,0.906596 0.775312,1.163934 0.189706,-0.257204 0.379542,-0.514711 0.77466,-1.163934 0.395325,-0.649542 0.990962,-1.681493 1.510525,-2.594926 0.519571,-0.91342 0.952023,-1.689016 1.154881,-2.490819 0.202849,-0.801813 0.175364,-1.629815 -0.07243,-2.367957 -0.247769,-0.73814 -0.719729,-1.39216 -0.926618,-1.987092 -0.206905,-0.59494 -0.155498,-1.151963 0.02716,-1.449745 0.182614,-0.297784 0.509741,-0.35763 0.944078,-0.19981 0.434328,0.157822 1.003245,0.532998 1.447157,1.106384 0.443914,0.573381 0.773841,1.352291 0.982232,2.222466 0.208405,0.870174 0.295302,1.831498 0.181056,2.763049 -0.114243,0.931554 -0.429666,1.832731 -0.668616,2.645364 -0.238959,0.812628 -0.400878,1.536922 -0.309734,2.147458 0.09109,0.610525 0.435241,1.108142 0.6615,1.4963 0.226263,0.38815 0.334396,0.666246 0.152604,1.110262 -0.181776,0.444011 -0.652897,1.053561 -1.066935,1.664427 -0.414035,0.610866 -0.77335,1.227528 -1.224072,1.736847 -0.450731,0.509305 -1.001738,0.9225 -1.361801,1.422587 -0.360077,0.500094 -0.536378,1.09224 -0.428717,1.58036 0.107614,0.488124 0.499596,0.872627 1.037195,1.158761 0.537584,0.286132 1.220829,0.473691 1.665718,0.677671 0.4449,0.203977 0.650888,0.424039 0.701595,0.657621 0.05067,0.233584 -0.05347,0.480535 -0.08989,0.733924 -0.03642,0.253393 -0.0039,0.52115 0.160366,0.658268 0.164209,0.137124 0.46185,0.159823 0.558041,0.320082 0.09623,0.160264 -0.0098,0.45778 0.08472,0.668616 0.09411,0.210832 0.396811,0.339017 0.680252,0.535411 0.283433,0.196385 0.569527,0.473304 0.520537,0.907223 -0.04906,0.433915 -0.42355,1.033708 -0.578084,1.625623 -0.15454,0.591909 -0.08919,1.175817 0.332365,1.827377 0.421505,0.651569 1.213456,1.384196 1.684472,2.340152 0.471016,0.955961 0.649799,2.160947 0.871657,2.949927 0.221841,0.788971 0.486535,1.161539 0.898814,0.775311 0.412294,-0.386224 0.972292,-1.531417 1.430991,-3.132925 0.458695,-1.601501 0.816322,-3.658929 1.034607,-5.26809 0.218305,-1.609157 0.297244,-2.769765 0.03491,-3.656694 -0.262275,-0.886939 -0.865922,-1.499595 -1.105736,-2.137109 -0.239824,-0.637509 -0.115608,-1.299946 0.232139,-2.025243 0.347765,-0.7253 0.916689,-1.509918 1.497596,-2.283253 0.580893,-0.773343 1.162434,-1.521003 1.82479,-2.183668 0.662363,-0.662674 1.402527,-1.236986 1.8222,-1.925665 0.419676,-0.688666 0.518939,-1.491493 0.272233,-2.208239 -0.246694,-0.716747 -0.839374,-1.34686 -1.637266,-1.837076 -0.797883,-0.490228 -1.800734,-0.840403 -2.371192,-1.374735 -0.57047,-0.53433 -0.70829,-1.252934 -0.903341,-1.970279 -0.195041,-0.717346 -0.447708,-1.433559 -0.810876,-1.877164 -0.363166,-0.443612 -0.82518,-0.610554 -0.993869,-0.889119 -0.16869,-0.278566 -0.03792,-0.666849 -0.243135,-1.105089 -0.205223,-0.43824 -0.746423,-0.925545 -0.875537,-1.576485 -0.129108,-0.650934 0.160023,-1.484048 0.327198,-2.32528 0.167182,-0.84123 0.215389,-1.699734 -0.10023,-2.400935 -0.315649,-0.701201 -0.995544,-1.244712 -1.806689,-1.747842 -0.811145,-0.503126 -1.753741,-0.965838 -2.510215,-1.392193 -0.75649,-0.426357 -1.326497,-0.816404 -1.524756,-1.27968 -0.198257,-0.463277 -0.01267,-1.036824 -0.05497,-1.462031 -0.04243,-0.425208 -0.306842,-0.719576 -0.521829,-1.076637 -0.214987,-0.357067 -0.380524,-0.776687 -0.563214,-1.09604 -0.182704,-0.319353 -0.382755,-0.538794 -0.644692,-0.655034 -0.261931,-0.116233 -0.585247,-0.129265 -0.703533,-0.371813 -0.118247,-0.242544 -0.02563,-0.745918 0.281933,-1.293259 0.307519,-0.547338 0.832924,-1.154208 1.163933,-1.698697 0.331009,-0.544492 0.467491,-1.026835 0.424837,-1.316538 -0.04266,-0.289705 -0.264974,-0.386526 -0.328491,-0.8923503 -0.06356,-0.505825 0.03168,-1.4208 0.09311,-2.254797 0.06148,-0.833999 0.08914,-1.587158 -0.123465,-2.1894896 C 36.576363,4.622321 36.123487,4.1712874 35.60038,3.8841907 34.98721,3.5939285 34.378605,3.4506772 33.794342,3.4515955 Z m 0.07243,28.5209015 c 0.678809,0 1.229244,0.549786 1.229244,1.228595 0,0.678812 -0.578152,1.737382 -1.229244,3.045626 -0.663054,-1.289456 -1.229243,-2.366814 -1.229243,-3.045626 0,-0.678809 0.550435,-1.228597 1.229243,-1.228595 z"
       style="fill:#333333;fill-opacity:1;stroke:none;stroke-width:0.339261;stroke-linecap:butt;stroke-linejoin:miter;stroke-miterlimit:4;stroke-dasharray:none;stroke-opacity:1"
       id="path867" />
  </g>
</svg>
